<svg width="207" height="33" viewBox="0 0 207 33" fill="none" xmlns="http://www.w3.org/2000/svg">
<g clip-path="url(#clip0_34_182)">
<path d="M8.89937 14.2178H0L9.39378 33.4998H18.2932L8.89937 14.2178Z" fill="#0B92D2"/>
<path d="M27.1923 9.27393H18.293L28.346 33.5H37.2453L27.1923 9.27393Z" fill="#137BC0"/>
<path d="M18.293 9.27393H27.1924L18.293 33.5H9.39363L18.293 9.27393Z" fill="#0E763F"/>
<path fill-rule="evenodd" clip-rule="evenodd" d="M13.2192 23.0854L9.39355 33.4998H18.2929L13.2192 23.0854Z" fill="#FFD100"/>
<path fill-rule="evenodd" clip-rule="evenodd" d="M9.39355 33.4998H18.2929L13.2192 23.0854L9.39355 33.4998Z" fill="#FFD100"/>
<path d="M38.399 4H47.2983L37.0805 33.4998H28.1812L38.399 4Z" fill="#E20613"/>
<path fill-rule="evenodd" clip-rule="evenodd" d="M32.3049 21.5942L28.2561 33.2834L28.346 33.4999H37.2453L37.1555 33.2834L32.3049 21.5942Z" fill="#0E4B9C"/>
<path fill-rule="evenodd" clip-rule="evenodd" d="M37.0805 33.4999L37.1555 33.2834L32.3049 21.5942L28.2561 33.2834L28.1812 33.4999H37.0805Z" fill="#0E4B9C"/>
<path d="M58.4768 14.4142H50.8633V10.155H71.5965V14.4142H63.983V32.7417H58.4768V14.4142Z" fill="white"/>
<path d="M81.0277 32.9998C79.1016 32.9998 77.3682 32.6234 75.8274 31.8705C74.3092 31.0961 73.1196 30.0313 72.2585 28.6761C71.3975 27.3209 70.9669 25.7828 70.9669 24.0619C70.9669 22.341 71.3975 20.803 72.2585 19.4478C73.1196 18.0926 74.3092 17.0386 75.8274 16.2857C77.3682 15.5113 79.1016 15.1241 81.0277 15.1241C82.9537 15.1241 84.6758 15.5113 86.194 16.2857C87.7122 17.0386 88.9018 18.0926 89.7628 19.4478C90.6239 20.803 91.0544 22.341 91.0544 24.0619C91.0544 25.7828 90.6239 27.3209 89.7628 28.6761C88.9018 30.0313 87.7122 31.0961 86.194 31.8705C84.6758 32.6234 82.9537 32.9998 81.0277 32.9998ZM81.0277 28.8697C82.3872 28.8697 83.4975 28.4394 84.3586 27.579C85.2423 26.6971 85.6842 25.5247 85.6842 24.0619C85.6842 22.5992 85.2423 21.4376 84.3586 20.5771C83.4975 19.6952 82.3872 19.2542 81.0277 19.2542C79.6681 19.2542 78.5465 19.6952 77.6628 20.5771C76.7791 21.4376 76.3372 22.5992 76.3372 24.0619C76.3372 25.5247 76.7791 26.6971 77.6628 27.579C78.5465 28.4394 79.6681 28.8697 81.0277 28.8697Z" fill="white"/>
<path d="M102.45 25.9334L99.9008 28.3211V32.7417H94.5986V8.7998H99.9008V22.3518L107.65 15.3822H113.972L106.359 22.739L114.652 32.7417H108.228L102.45 25.9334Z" fill="white"/>
<path d="M128.018 15.1241C130.284 15.1241 132.108 15.7694 133.49 17.0601C134.895 18.3507 135.598 20.2652 135.598 22.8035V32.7417H130.295V23.5779C130.295 22.2012 129.978 21.1794 129.344 20.5126C128.709 19.8242 127.792 19.4801 126.591 19.4801C125.254 19.4801 124.189 19.878 123.396 20.6739C122.603 21.4483 122.206 22.6099 122.206 24.1587V32.7417H116.904V15.3822H121.968V17.415C122.671 16.6836 123.543 16.1243 124.585 15.7371C125.628 15.3284 126.772 15.1241 128.018 15.1241Z" fill="white"/>
<path d="M158.515 24.1265C158.515 24.191 158.481 24.6427 158.413 25.4817H144.58C144.829 26.5572 145.418 27.4069 146.347 28.0307C147.276 28.6546 148.432 28.9665 149.814 28.9665C150.766 28.9665 151.604 28.8374 152.329 28.5793C153.077 28.2996 153.768 27.8694 154.403 27.2886L157.224 30.1926C155.502 32.0641 152.986 32.9998 149.678 32.9998C147.616 32.9998 145.792 32.6234 144.206 31.8705C142.62 31.0961 141.396 30.0313 140.535 28.6761C139.674 27.3209 139.244 25.7828 139.244 24.0619C139.244 22.3626 139.663 20.8353 140.501 19.4801C141.362 18.1034 142.529 17.0386 144.002 16.2857C145.498 15.5113 147.163 15.1241 148.998 15.1241C150.788 15.1241 152.409 15.4898 153.859 16.2211C155.309 16.9525 156.442 18.0066 157.258 19.3833C158.096 20.7385 158.515 22.3195 158.515 24.1265ZM149.032 18.9315C147.831 18.9315 146.823 19.2542 146.007 19.8995C145.192 20.5449 144.693 21.4268 144.512 22.5454H153.519C153.338 21.4483 152.839 20.5771 152.023 19.9318C151.208 19.265 150.211 18.9315 149.032 18.9315Z" fill="white"/>
<path d="M167.11 17.6731C167.744 16.8342 168.594 16.1996 169.659 15.7694C170.747 15.3392 171.993 15.1241 173.398 15.1241V19.7705C172.809 19.7275 172.412 19.7059 172.208 19.7059C170.69 19.7059 169.5 20.1146 168.639 20.9321C167.778 21.728 167.348 22.9326 167.348 24.5459V32.7417H162.045V15.3822H167.11V17.6731Z" fill="white"/>
<path d="M182.769 32.9998C181.251 32.9998 179.766 32.8277 178.316 32.4835C176.866 32.1179 175.71 31.6661 174.849 31.1283L176.617 27.5145C177.433 28.0092 178.418 28.4179 179.574 28.7406C180.729 29.0418 181.862 29.1923 182.973 29.1923C185.216 29.1923 186.338 28.6653 186.338 27.6113C186.338 27.1165 186.032 26.7616 185.42 26.5465C184.808 26.3314 183.868 26.1485 182.599 25.9979C181.103 25.7828 179.868 25.5354 178.894 25.2558C177.92 24.9762 177.07 24.4814 176.345 23.7715C175.642 23.0617 175.291 22.0506 175.291 20.7385C175.291 19.6414 175.62 18.6734 176.277 17.8345C176.957 16.974 177.931 16.3072 179.2 15.8339C180.492 15.3607 182.01 15.1241 183.754 15.1241C185.046 15.1241 186.326 15.2639 187.595 15.5435C188.887 15.8017 189.952 16.1674 190.79 16.6406L189.023 20.2222C187.414 19.3618 185.658 18.9315 183.754 18.9315C182.622 18.9315 181.772 19.0821 181.205 19.3833C180.639 19.6844 180.356 20.0716 180.356 20.5449C180.356 21.0826 180.661 21.4591 181.273 21.6742C181.885 21.8893 182.859 22.0937 184.196 22.2873C185.692 22.5239 186.915 22.782 187.867 23.0617C188.819 23.3198 189.646 23.8038 190.348 24.5137C191.051 25.2235 191.402 26.213 191.402 27.4822C191.402 28.5578 191.062 29.515 190.382 30.3539C189.703 31.1929 188.706 31.849 187.391 32.3222C186.1 32.7739 184.559 32.9998 182.769 32.9998Z" fill="white"/>
</g>
<defs>
<clipPath id="clip0_34_182">
<rect width="207" height="33" fill="white"/>
</clipPath>
</defs>
</svg>
