<svg width="12" height="12" viewBox="0 0 12 12" fill="none" xmlns="http://www.w3.org/2000/svg">
<path fill-rule="evenodd" clip-rule="evenodd" d="M6.70678 0.626145C6.31626 0.235621 5.68309 0.235621 5.29257 0.626145C4.90204 1.01667 4.90204 1.64983 5.29257 2.04036L8.25213 4.99992H1.33301C0.780723 4.99992 0.333008 5.44763 0.333008 5.99992C0.333008 6.5522 0.780723 6.99992 1.33301 6.99992H8.25213L5.29257 9.95948C4.90204 10.35 4.90204 10.9832 5.29257 11.3737C5.68309 11.7642 6.31626 11.7642 6.70678 11.3737L11.3734 6.70703C11.4693 6.61115 11.5417 6.50065 11.5905 6.3827C11.6394 6.2648 11.6663 6.13551 11.6663 5.99992C11.6663 5.86433 11.6394 5.73504 11.5905 5.61714C11.5417 5.49919 11.4693 5.38869 11.3734 5.29281L6.70678 0.626145Z" fill="#22A75D"/>
</svg>
