<svg width="12" height="12" viewBox="0 0 12 12" fill="none" xmlns="http://www.w3.org/2000/svg">
<path fill-rule="evenodd" clip-rule="evenodd" d="M6.70727 0.626145C6.31675 0.235621 5.68358 0.235621 5.29306 0.626145C4.90253 1.01667 4.90253 1.64983 5.29306 2.04036L8.25262 4.99992H1.3335C0.781211 4.99992 0.333496 5.44763 0.333496 5.99992C0.333496 6.5522 0.781211 6.99992 1.3335 6.99992H8.25262L5.29306 9.95948C4.90253 10.35 4.90253 10.9832 5.29306 11.3737C5.68358 11.7642 6.31675 11.7642 6.70727 11.3737L11.3739 6.70703C11.4698 6.61115 11.5422 6.50065 11.591 6.3827C11.6398 6.2648 11.6668 6.13551 11.6668 5.99992C11.6668 5.86433 11.6398 5.73504 11.591 5.61714C11.5422 5.49919 11.4698 5.38869 11.3739 5.29281L6.70727 0.626145Z" fill="#2278D4"/>
</svg>
