<svg width="704" height="168" viewBox="0 0 704 168" fill="none" xmlns="http://www.w3.org/2000/svg">
<g opacity="0.1">
<mask id="path-1-inside-1_7_359" fill="white">
<path d="M265.032 0L210.802 166.08H169.541L133.076 53.613L95.4127 166.08H54.4948L0 0H39.7813L77.1492 116.726L116.23 0H151.745L189.782 117.677L228.38 0H265.032Z"/>
<path d="M398.419 112.701H302.041C303.577 120.301 307.991 127.01 314.357 131.42C320.813 136.006 328.863 138.299 338.506 138.299C344.518 138.407 350.498 137.403 356.146 135.335C361.503 133.216 366.375 130.032 370.471 125.976L390.136 147.331C378.126 161.089 360.599 167.973 337.556 167.983C324.358 168.247 311.288 165.359 299.425 159.56C288.844 154.372 279.971 146.251 273.859 136.162C267.773 125.909 264.657 114.162 264.86 102.235C264.696 90.3685 267.764 78.6821 273.734 68.4322C279.541 58.4906 287.987 50.3584 298.133 44.9404C308.715 39.4741 320.438 36.5922 332.344 36.5299C344.25 36.4675 356.002 39.2265 366.641 44.5817C376.624 49.8484 384.888 57.8779 390.447 67.7146C396.372 78.4093 399.355 90.4894 399.088 102.718C399.078 103.197 398.855 106.524 398.419 112.701ZM311.974 71.6455C306.184 76.5861 302.465 83.5316 301.558 91.0972H364.321C363.359 83.5842 359.647 76.6966 353.904 71.7703C348.061 66.8821 340.634 64.3073 333.025 64.5325C325.362 64.2809 317.866 66.8064 311.912 71.6455H311.974Z"/>
<path d="M547.797 112.701H451.356C452.899 120.298 457.311 127.005 463.672 131.42C470.149 136.006 478.204 138.299 487.837 138.299C493.849 138.406 499.829 137.401 505.478 135.335C510.832 133.212 515.704 130.028 519.802 125.976L539.451 147.33C527.463 161.088 509.941 167.973 486.887 167.983C473.69 168.246 460.619 165.359 448.756 159.56C438.171 154.372 429.293 146.252 423.175 136.162C417.096 125.906 413.98 114.16 414.175 102.234C414.009 90.3658 417.084 78.6774 423.066 68.4319C428.87 58.4945 437.31 50.3631 447.448 44.9401C458.031 39.4763 469.754 36.5957 481.659 36.5334C493.565 36.471 505.317 39.2286 515.956 44.5814C525.936 49.8483 534.194 57.8781 539.747 67.7143C545.673 78.409 548.655 90.4891 548.389 102.718C548.461 103.196 548.264 106.524 547.797 112.701ZM461.352 71.6452C455.562 76.5858 451.843 83.5312 450.936 91.0969H513.636C512.675 83.5839 508.963 76.6963 503.22 71.77C497.418 66.9178 490.052 64.3453 482.496 64.5322C474.823 64.2702 467.313 66.7965 461.352 71.6452Z"/>
<path d="M688.815 50.774C698.53 60.2581 703.388 74.3333 703.388 92.9998V166.08H666.441V98.6934C666.441 88.5646 664.23 81.0148 659.808 76.044C655.386 71.0732 648.992 68.5826 640.626 68.5722C631.284 68.5722 623.862 71.458 618.361 77.2295C612.859 83.001 610.098 91.5804 610.077 102.967V166.08H573.13V38.4354H608.411V53.379C613.464 47.8788 619.706 43.6102 626.659 40.9C634.299 37.9012 642.448 36.4179 650.653 36.5324C666.389 36.5324 679.109 41.2796 688.815 50.774Z"/>
<path d="M818.949 159.903C814.928 162.777 810.384 164.833 805.574 165.955C800.111 167.323 794.499 168.004 788.868 167.983C773.713 167.983 761.994 164.104 753.711 156.346C745.427 148.589 741.275 137.202 741.255 122.185V69.8202H721.621V41.2744H741.27V10.2017H778.218V41.2744H809.949V69.8202H778.218V121.78C778.218 127.146 779.603 131.31 782.359 134.259C785.115 137.207 789.023 138.658 794.083 138.658C799.44 138.831 804.698 137.182 809 133.978L818.949 159.903Z"/>
<path d="M936.656 50.6494C947.223 60.0711 952.512 74.266 952.522 93.2341V166.08H917.941V150.185C910.997 162.04 898.048 167.973 879.094 167.983C870.348 168.189 861.661 166.486 853.637 162.992C846.949 160.08 841.237 155.304 837.18 149.234C833.369 143.294 831.392 136.359 831.497 129.298C831.497 117.443 835.96 108.115 844.887 101.314C853.814 94.5132 867.588 91.1075 886.21 91.0971H915.575C915.575 83.0273 913.125 76.8242 908.226 72.4877C903.326 68.1513 895.988 65.9726 886.21 65.9518C879.413 65.9551 872.66 67.0397 866.202 69.1652C860.158 71.0183 854.498 73.9513 849.496 77.8225L836.23 51.9598C843.822 46.7628 852.248 42.911 861.142 40.5726C870.898 37.8708 880.976 36.5117 891.099 36.5326C910.893 36.5326 926.079 41.2382 936.656 50.6494ZM905.158 138.673C910.055 135.742 913.749 131.157 915.575 125.742V112.701H890.227C875.072 112.701 867.495 117.683 867.495 127.645C867.422 129.837 867.894 132.014 868.867 133.979C869.839 135.944 871.283 137.638 873.069 138.907C876.774 141.684 881.866 143.072 888.343 143.072C894.245 143.179 900.062 141.658 905.158 138.673Z"/>
<path d="M1039.08 41.275C1047.32 37.9989 1056.13 36.4078 1065 36.5954V70.7567C1060.91 70.4447 1058.13 70.2887 1056.72 70.2887C1046.15 70.2887 1037.85 73.2525 1031.8 79.18C1025.76 85.1075 1022.76 94.0092 1022.81 105.885V166.143H985.905V38.436H1021.22V55.2827C1025.74 49.0267 1031.93 44.1724 1039.08 41.275Z"/>
</mask>
<path d="M265.032 0L210.802 166.08H169.541L133.076 53.613L95.4127 166.08H54.4948L0 0H39.7813L77.1492 116.726L116.23 0H151.745L189.782 117.677L228.38 0H265.032Z" stroke="black" stroke-width="2" stroke-dasharray="2 2" mask="url(#path-1-inside-1_7_359)"/>
<path d="M398.419 112.701H302.041C303.577 120.301 307.991 127.01 314.357 131.42C320.813 136.006 328.863 138.299 338.506 138.299C344.518 138.407 350.498 137.403 356.146 135.335C361.503 133.216 366.375 130.032 370.471 125.976L390.136 147.331C378.126 161.089 360.599 167.973 337.556 167.983C324.358 168.247 311.288 165.359 299.425 159.56C288.844 154.372 279.971 146.251 273.859 136.162C267.773 125.909 264.657 114.162 264.86 102.235C264.696 90.3685 267.764 78.6821 273.734 68.4322C279.541 58.4906 287.987 50.3584 298.133 44.9404C308.715 39.4741 320.438 36.5922 332.344 36.5299C344.25 36.4675 356.002 39.2265 366.641 44.5817C376.624 49.8484 384.888 57.8779 390.447 67.7146C396.372 78.4093 399.355 90.4894 399.088 102.718C399.078 103.197 398.855 106.524 398.419 112.701ZM311.974 71.6455C306.184 76.5861 302.465 83.5316 301.558 91.0972H364.321C363.359 83.5842 359.647 76.6966 353.904 71.7703C348.061 66.8821 340.634 64.3073 333.025 64.5325C325.362 64.2809 317.866 66.8064 311.912 71.6455H311.974Z" stroke="black" stroke-width="2" stroke-dasharray="2 2" mask="url(#path-1-inside-1_7_359)"/>
<path d="M547.797 112.701H451.356C452.899 120.298 457.311 127.005 463.672 131.42C470.149 136.006 478.204 138.299 487.837 138.299C493.849 138.406 499.829 137.401 505.478 135.335C510.832 133.212 515.704 130.028 519.802 125.976L539.451 147.33C527.463 161.088 509.941 167.973 486.887 167.983C473.69 168.246 460.619 165.359 448.756 159.56C438.171 154.372 429.293 146.252 423.175 136.162C417.096 125.906 413.98 114.16 414.175 102.234C414.009 90.3658 417.084 78.6774 423.066 68.4319C428.87 58.4945 437.31 50.3631 447.448 44.9401C458.031 39.4763 469.754 36.5957 481.659 36.5334C493.565 36.471 505.317 39.2286 515.956 44.5814C525.936 49.8483 534.194 57.8781 539.747 67.7143C545.673 78.409 548.655 90.4891 548.389 102.718C548.461 103.196 548.264 106.524 547.797 112.701ZM461.352 71.6452C455.562 76.5858 451.843 83.5312 450.936 91.0969H513.636C512.675 83.5839 508.963 76.6963 503.22 71.77C497.418 66.9178 490.052 64.3453 482.496 64.5322C474.823 64.2702 467.313 66.7965 461.352 71.6452Z" stroke="black" stroke-width="2" stroke-dasharray="2 2" mask="url(#path-1-inside-1_7_359)"/>
<path d="M688.815 50.774C698.53 60.2581 703.388 74.3333 703.388 92.9998V166.08H666.441V98.6934C666.441 88.5646 664.23 81.0148 659.808 76.044C655.386 71.0732 648.992 68.5826 640.626 68.5722C631.284 68.5722 623.862 71.458 618.361 77.2295C612.859 83.001 610.098 91.5804 610.077 102.967V166.08H573.13V38.4354H608.411V53.379C613.464 47.8788 619.706 43.6102 626.659 40.9C634.299 37.9012 642.448 36.4179 650.653 36.5324C666.389 36.5324 679.109 41.2796 688.815 50.774Z" stroke="black" stroke-width="2" stroke-dasharray="2 2" mask="url(#path-1-inside-1_7_359)"/>
<path d="M818.949 159.903C814.928 162.777 810.384 164.833 805.574 165.955C800.111 167.323 794.499 168.004 788.868 167.983C773.713 167.983 761.994 164.104 753.711 156.346C745.427 148.589 741.275 137.202 741.255 122.185V69.8202H721.621V41.2744H741.27V10.2017H778.218V41.2744H809.949V69.8202H778.218V121.78C778.218 127.146 779.603 131.31 782.359 134.259C785.115 137.207 789.023 138.658 794.083 138.658C799.44 138.831 804.698 137.182 809 133.978L818.949 159.903Z" stroke="black" stroke-width="2" stroke-dasharray="2 2" mask="url(#path-1-inside-1_7_359)"/>
<path d="M936.656 50.6494C947.223 60.0711 952.512 74.266 952.522 93.2341V166.08H917.941V150.185C910.997 162.04 898.048 167.973 879.094 167.983C870.348 168.189 861.661 166.486 853.637 162.992C846.949 160.08 841.237 155.304 837.18 149.234C833.369 143.294 831.392 136.359 831.497 129.298C831.497 117.443 835.96 108.115 844.887 101.314C853.814 94.5132 867.588 91.1075 886.21 91.0971H915.575C915.575 83.0273 913.125 76.8242 908.226 72.4877C903.326 68.1513 895.988 65.9726 886.21 65.9518C879.413 65.9551 872.66 67.0397 866.202 69.1652C860.158 71.0183 854.498 73.9513 849.496 77.8225L836.23 51.9598C843.822 46.7628 852.248 42.911 861.142 40.5726C870.898 37.8708 880.976 36.5117 891.099 36.5326C910.893 36.5326 926.079 41.2382 936.656 50.6494ZM905.158 138.673C910.055 135.742 913.749 131.157 915.575 125.742V112.701H890.227C875.072 112.701 867.495 117.683 867.495 127.645C867.422 129.837 867.894 132.014 868.867 133.979C869.839 135.944 871.283 137.638 873.069 138.907C876.774 141.684 881.866 143.072 888.343 143.072C894.245 143.179 900.062 141.658 905.158 138.673Z" stroke="black" stroke-width="2" stroke-dasharray="2 2" mask="url(#path-1-inside-1_7_359)"/>
<path d="M1039.08 41.275C1047.32 37.9989 1056.13 36.4078 1065 36.5954V70.7567C1060.91 70.4447 1058.13 70.2887 1056.72 70.2887C1046.15 70.2887 1037.85 73.2525 1031.8 79.18C1025.76 85.1075 1022.76 94.0092 1022.81 105.885V166.143H985.905V38.436H1021.22V55.2827C1025.74 49.0267 1031.93 44.1724 1039.08 41.275Z" stroke="black" stroke-width="2" stroke-dasharray="2 2" mask="url(#path-1-inside-1_7_359)"/>
</g>
</svg>
