<svg width="21" height="22" viewBox="0 0 21 22" fill="none" xmlns="http://www.w3.org/2000/svg">
<path d="M18.3148 11.1316C17.6938 11.2085 17.0618 11.2481 16.4211 11.2481C12.1493 11.2481 8.2699 9.4886 5.40707 6.62362C7.15259 11.5664 11.0661 15.4078 15.9384 16.8808C16.8092 17.1441 17.7107 17.3317 18.636 17.4364C18.7539 17.4497 18.8722 17.4617 18.9909 17.4724L18.9951 17.4663C20.2561 15.6513 21 13.4167 21 11C21 10.8499 20.9971 10.7005 20.9914 10.5519C20.1277 10.8221 19.2332 11.0177 18.3148 11.1316Z" fill="white"/>
<path d="M2.68421 11C2.68421 15.5221 6.18346 19.188 10.5 19.188C12.0824 19.188 13.555 18.6953 14.7857 17.8484C15.7603 18.3201 16.8157 18.6398 17.9241 18.7787C16.024 20.769 13.3992 22 10.5 22C4.70101 22 0 17.0751 0 11C0 4.92487 4.70101 0 10.5 0C15.6857 0 19.9933 3.93818 20.8465 9.11543C20.0097 9.40738 19.1262 9.592 18.2106 9.6537C17.5984 5.77135 14.3794 2.81203 10.5 2.81203C6.18346 2.81203 2.68421 6.47791 2.68421 11Z" fill="white"/>
</svg>
